<?xml version="1.0" encoding="utf-8"?>
<!-- Generator: Adobe Illustrator 17.0.0, SVG Export Plug-In . SVG Version: 6.00 Build 0)  -->
<!DOCTYPE svg PUBLIC "-//W3C//DTD SVG 1.1//EN" "http://www.w3.org/Graphics/SVG/1.1/DTD/svg11.dtd">
<svg version="1.1" id="Layer_1" xmlns="http://www.w3.org/2000/svg" xmlns:xlink="http://www.w3.org/1999/xlink" x="0px" y="0px"
	 width="20.1px" height="19.771px" viewBox="0 0 20.1 19.771" enable-background="new 0 0 20.1 19.771" xml:space="preserve">
<g>
	<g>
		<path fill="none" stroke="#31C5F4" stroke-linecap="round" stroke-linejoin="round" stroke-miterlimit="10" d="M13.298,2.998
			c-0.322-0.967-1.612-2.257-3.225-2.257s-3.225,1.29-3.547,2.257"/>
		<path fill="none" stroke="#31C5F4" stroke-linecap="round" stroke-linejoin="round" stroke-miterlimit="10" d="M8.139,8.48
			c1.098,0.553,2.771,0.553,3.87,0"/>
		<path fill="none" stroke="#31C5F4" stroke-linecap="round" stroke-linejoin="round" stroke-miterlimit="10" d="M7.494,3.321
			C5.729,2.469,2.979,2.998,2.979,4.61c0.349,0.211,0.854,0.567,0.967,0.967"/>
		<path fill="none" stroke="#31C5F4" stroke-linecap="round" stroke-linejoin="round" stroke-miterlimit="10" d="M2.979,4.61
			c-1.096-0.661-2.257,0-2.257,1.612s1.51,1.679,2.58,0.967c0.603,1.681,3.701,1.998,4.837,1.29"/>
		<path fill="none" stroke="#31C5F4" stroke-linecap="round" stroke-linejoin="round" stroke-miterlimit="10" d="M16.2,5.578
			c0.141-0.268,0.61-0.796,0.967-0.967c0.322-1.612-2.901-2.227-4.837-1.29"/>
		<path fill="none" stroke="#31C5F4" stroke-linecap="round" stroke-linejoin="round" stroke-miterlimit="10" d="M12.008,8.48
			c0.988,0.616,3.936,0.498,4.837-0.967c1.066,0.893,2.58,0.322,2.58-1.29S18.27,3.957,17.168,4.61"/>
	</g>
	<g>
		<path fill="none" stroke="#31C5F4" stroke-linecap="round" stroke-linejoin="round" stroke-miterlimit="10" d="M10.718,13.962
			c1.096,0.661,2.58,0.285,2.58-0.967c0-1.305-1.51-2.001-2.58-1.29"/>
	</g>
	<g>
		<path fill="none" stroke="#31C5F4" stroke-linecap="round" stroke-linejoin="round" stroke-miterlimit="10" d="M9.429,13.962
			c-1.096,0.661-2.58,0.285-2.58-0.967c0-1.305,1.51-2.001,2.58-1.29"/>
	</g>
	<path fill="none" stroke="#31C5F4" stroke-linejoin="round" stroke-miterlimit="10" d="M8.461,8.621
		c0.813,0.813,0.645,1.296,0.645,2.922"/>
	<path fill="none" stroke="#31C5F4" stroke-linejoin="round" stroke-miterlimit="10" d="M11.686,8.621
		c-0.813,0.813-0.645,1.296-0.645,2.922"/>
	<path fill="none" stroke="#31C5F4" stroke-linejoin="round" stroke-miterlimit="10" d="M9.106,14.117
		c0,4.473-6.758,2.317-6.758,5.005h7.725"/>
	<path fill="none" stroke="#31C5F4" stroke-linejoin="round" stroke-miterlimit="10" d="M11.041,14.117
		c0,4.473,6.758,2.317,6.758,5.005h-7.725"/>
</g>
</svg>
